<svg width="857" height="502" viewBox="0 0 857 502" fill="none" xmlns="http://www.w3.org/2000/svg">
<path d="M51.11 483.93C227.87 458.717 397.59 412.397 558.99 341.12C661.15 291.083 761.64 239.65 826.17 158.01C840.682 124.896 852.215 90.889 851.506 53.21C837.66 24.354 801.565 16.036 768.587 4.841C654.697 26.792 543.147 68.676 432.307 116.551C345.656 161.462 263.687 212.922 184.697 268.571C110.899 324.824 55.727 390.951 6.18701 460.901L51.11 483.93Z" fill="#008000"/>
<path d="M597.38 70.59C645.956 82.927 698.77 93.447 726.86 114.564C730.253 122.137 729.515 128.884 725.231 134.923C686.175 170.973 643.201 202.451 594.941 227.758C499.861 282.635 413.041 301.737 327.021 317.336C297.365 312.215 259.322 316.772 248.03 290.463L252.916 277.434C303.844 234.023 354.406 190.139 415.786 160.164L597.38 70.59Z" fill="#AA4400"/>
<path d="M597.03 70.92C645.606 83.257 698.42 93.777 726.51 114.894C729.903 122.467 729.165 129.214 724.881 135.253C685.825 171.303 642.851 202.781 594.591 228.088C499.511 282.965 412.691 302.067 326.671 317.666C297.015 312.545 258.972 317.102 247.68 290.793L252.566 277.764C303.494 234.353 354.056 190.469 415.436 160.494L597.03 70.92Z" fill="url(#paint0_linear_1_43)"/>
<path d="M590.05 124.33C640.207 124.312 659.665 142.248 698.28 158.096C652.429 197.503 598.961 223.581 547.35 252.904C476.8 286.759 402.71 304.092 327.59 316.603L290.113 313.042C342.558 261.175 382.809 226.325 445.913 192.732L559.103 132.471C570.178 125.957 580.509 123.164 590.048 124.328L590.05 124.33Z" fill="#FFB380"/>
<path d="M6.16 462.29L15.1178 478.577C28.0908 489.428 38.5748 494.059 48.5058 497.307C230.916 489.461 401.726 430.588 568.866 355.607C676.586 306.885 775.706 251.527 830.266 161.797L841.667 119.451L824.566 159.354C755.882 244.851 658.716 294.744 559.906 342.584C395.666 412.791 226.736 461.564 51.7558 482.654L6.16 462.29Z" fill="#3E4837"/>
<path d="M644.79 215.59L733.467 154.552C750.413 169.465 771.896 181.785 778.957 202.346L714.464 247.836C701.086 230.933 669.123 225.646 644.79 215.59Z" fill="#4D4D4D"/>
<path d="M505.44 85.46L521.563 90.0666C489.38 103.012 459.311 118.774 431.734 137.861L409.853 128.647L505.44 85.46Z" fill="#4D4D4D"/>
<path d="M597.03 70.92C645.606 83.257 698.42 93.777 726.51 114.894C729.903 122.467 729.165 129.214 724.881 135.253C685.825 171.303 642.851 202.781 594.591 228.088C499.511 282.965 412.691 302.067 326.671 317.666C297.015 312.545 258.972 317.102 247.68 290.793L252.566 277.764C303.494 234.353 354.056 190.469 415.436 160.494L597.03 70.92Z" fill="url(#paint1_linear_1_43)"/>
<path d="M438.06 166.07L487.005 129.793L645.355 188.527L591.803 228.259L438.06 166.07Z" fill="#333333"/>
<path d="M463.4 118.28L674.73 194.865L668.396 200.623L455.916 122.311L463.4 118.28Z" fill="#4D4D4D"/>
<path d="M404.86 152.26L621.74 240.583L615.15 245.524L400.07 156.584L404.86 152.26Z" fill="#4D4D4D"/>
<path d="M29.06 471.39L6.85999 460.554L17.468 445.046L28.076 429.538L31.9566 434.072C37.4582 440.499 49.9306 446.323 62.3646 448.269C70.696 449.573 74.4496 449.577 85.3976 448.291C193.568 435.591 293.428 411.508 409.428 370.15C526.568 328.383 605.178 292.621 677.768 248.09C687.269 242.261 695.7 237.114 696.503 236.655C698.187 235.692 704.704 239.451 710.649 244.815L714.739 248.505L745.774 226.599C762.843 214.55 777.417 204.186 778.161 203.569C779.918 202.111 777.418 195.911 772.19 188.764L768.399 183.582L774.907 178.003C778.487 174.935 789.024 165.212 798.323 156.398L815.231 140.372L822.676 125.7C835.563 100.303 841.878 77.8773 841.878 57.5073C841.878 45.7543 841.425 44.4863 834.147 35.8823C827.621 28.1685 829.443 28.1133 837.821 35.7708C848.688 45.7029 849.193 47.4168 848.444 71.8258C847.56 100.633 843.503 117.941 831.056 146.011C824.978 159.719 817.674 169.069 796.729 189.958C750.066 236.496 692.879 274.727 595.999 324.158C557.814 343.641 521.562 359.111 464.509 380.267C346.579 423.997 217.129 457.428 88.9593 477.248C70.5193 480.1 54.4943 482.386 53.3473 482.33C52.2003 482.273 41.2723 477.35 29.0623 471.391L29.06 471.39Z" fill="#008000"/>
<path d="M29.06 471.39L6.85999 460.554L17.468 445.046L28.076 429.538L31.9566 434.072C37.4582 440.499 49.9306 446.323 62.3646 448.269C70.696 449.573 74.4496 449.577 85.3976 448.291C193.568 435.591 293.428 411.508 409.428 370.15C526.568 328.383 605.178 292.621 677.768 248.09C687.269 242.261 695.7 237.114 696.503 236.655C698.187 235.692 704.704 239.451 710.649 244.815L714.739 248.505L745.774 226.599C762.843 214.55 777.417 204.186 778.161 203.569C779.918 202.111 777.418 195.911 772.19 188.764L768.399 183.582L774.907 178.003C778.487 174.935 789.024 165.212 798.323 156.398L815.231 140.372L822.676 125.7C835.563 100.303 841.878 77.8773 841.878 57.5073C841.878 45.7543 841.425 44.4863 834.147 35.8823C827.621 28.1685 829.443 28.1133 837.821 35.7708C848.688 45.7029 849.193 47.4168 848.444 71.8258C847.56 100.633 843.503 117.941 831.056 146.011C824.978 159.719 817.674 169.069 796.729 189.958C750.066 236.496 692.879 274.727 595.999 324.158C557.814 343.641 521.562 359.111 464.509 380.267C346.579 423.997 217.129 457.428 88.9593 477.248C70.5193 480.1 54.4943 482.386 53.3473 482.33C52.2003 482.273 41.2723 477.35 29.0623 471.391L29.06 471.39Z" fill="#7FFF2A"/>
<g filter="url(#filter0_f_1_43)">
<path d="M51.11 483.93C227.87 458.717 397.59 412.397 558.99 341.12C661.15 291.083 761.64 239.65 826.17 158.01C840.682 124.896 852.215 90.889 851.506 53.21C837.66 24.354 801.565 16.036 768.587 4.841C654.697 26.792 543.147 68.676 432.307 116.551C345.656 161.462 263.687 212.922 184.697 268.571C110.899 324.824 55.727 390.951 6.18701 460.901L51.11 483.93Z" fill="#023E8A"/>
</g>
<path d="M597.38 70.59C645.956 82.927 698.77 93.447 726.86 114.564C730.253 122.137 729.515 128.884 725.231 134.923C686.175 170.973 643.201 202.451 594.941 227.758C499.861 282.635 413.041 301.737 327.021 317.336C297.365 312.215 259.322 316.772 248.03 290.463L252.916 277.434C303.844 234.023 354.406 190.139 415.786 160.164L597.38 70.59Z" fill="#AA4400"/>
<path d="M597.03 70.92C645.606 83.257 698.42 93.777 726.51 114.894C729.903 122.467 729.165 129.214 724.881 135.253C685.825 171.303 642.851 202.781 594.591 228.088C499.511 282.965 412.691 302.067 326.671 317.666C297.015 312.545 258.972 317.102 247.68 290.793L252.566 277.764C303.494 234.353 354.056 190.469 415.436 160.494L597.03 70.92Z" fill="url(#paint2_linear_1_43)"/>
<path d="M590.05 124.33C640.207 124.312 659.665 142.248 698.28 158.096C652.429 197.503 598.961 223.581 547.35 252.904C476.8 286.759 402.71 304.092 327.59 316.603L290.113 313.042C342.558 261.175 382.809 226.325 445.913 192.732L559.103 132.471C570.178 125.957 580.509 123.164 590.048 124.328L590.05 124.33Z" fill="#FFCC00"/>
<path d="M6.16 462.29L15.1178 478.577C28.0908 489.428 38.5748 494.059 48.5058 497.307C230.916 489.461 401.726 430.588 568.866 355.607C676.586 306.885 775.706 251.527 830.266 161.797L841.667 119.451L824.566 159.354C755.882 244.851 658.716 294.744 559.906 342.584C395.666 412.791 226.736 461.564 51.7558 482.654L6.16 462.29Z" fill="#3E4837"/>
<g filter="url(#filter1_f_1_43)">
<path d="M644.79 215.59L733.467 154.552C750.413 169.465 771.896 181.785 778.957 202.346L714.464 247.836C701.086 230.933 669.123 225.646 644.79 215.59Z" fill="#98C1D9"/>
</g>
<g filter="url(#filter2_f_1_43)">
<path d="M505.44 85.46L521.563 90.0666C489.38 103.012 459.311 118.774 431.734 137.861L409.853 128.647L505.44 85.46Z" fill="#98C1D9"/>
</g>
<g filter="url(#filter3_f_1_43)">
<path d="M249.98 294.23C323.025 228.612 405.23 164.83 597.2 82.65L598.208 96.182C459.078 145.68 356.308 223.512 257.818 303.122C254.665 300.517 251.974 297.604 249.972 294.233L249.98 294.23Z" fill="url(#paint3_linear_1_43)"/>
</g>
<g filter="url(#filter4_f_1_43)">
<path d="M263.77 306.65C368.2 226.057 473.16 143.25 596.92 107.34L597.28 120.728C474.96 149.11 377.52 234.228 277.19 311.178C271.706 310.045 267.755 308.337 263.766 306.643L263.77 306.65Z" fill="url(#paint4_linear_1_43)"/>
</g>
<g filter="url(#filter5_f_1_43)">
<path d="M597 82.44C641.64 91.4371 685.396 105.074 728.5 127.858C727.289 131.873 725.263 135.596 721.374 138.655C682.314 113.861 641.765 104.197 598.144 96.116L597 82.44Z" fill="url(#paint5_linear_1_43)"/>
</g>
<g filter="url(#filter6_f_1_43)">
<path d="M596.7 107.48C636.423 112.339 676.374 126.06 710.28 148.292L701.571 155.922C671.909 136.57 632.937 120.177 597.131 120.869L596.7 107.48Z" fill="url(#paint6_linear_1_43)"/>
</g>
<g filter="url(#filter7_f_1_43)">
<path d="M438.06 166.07L499.22 135.493L656.76 190.97L595.879 231.516L438.06 166.07Z" fill="#333333"/>
</g>
<g filter="url(#filter8_f_1_43)">
<path d="M463.4 118.28L674.73 194.865L668.396 200.623L455.916 122.311L463.4 118.28Z" fill="#8D99AE"/>
</g>
<g filter="url(#filter9_f_1_43)">
<path d="M404.86 152.26L621.74 240.583L615.15 245.524L400.07 156.584L404.86 152.26Z" fill="#8D99AE"/>
</g>
<g filter="url(#filter10_f_1_43)">
<path d="M642.57 48.19L764.72 15.616C783.487 27.251 810.139 31.002 819.281 52.261C826.586 77.601 811.411 97.322 802.587 118.63L795.258 126.773C742.604 71.5744 693.288 71.5274 642.568 48.1894L642.57 48.19Z" fill="#98C1D9"/>
</g>
<path d="M212.34 252.45C159.884 284.404 84.69 350.459 28.65 429.8C32.1449 437.898 63.359 450.483 72.989 449.378C226.409 430.408 347.449 397.532 379.349 354.971C357.253 352.28 354.418 326.962 307.414 326.777C293.327 321.524 273.411 279.633 249.15 277.261C240.709 257.299 207.123 272.407 212.336 252.445L212.34 252.45Z" fill="url(#paint7_linear_1_43)"/>
<path d="M6.16 462.29L15.1178 478.577C28.0908 489.428 38.5748 494.059 48.5058 497.307C230.916 489.461 401.726 430.588 568.866 355.607C676.586 306.885 775.706 251.527 830.266 161.797L841.667 119.451L824.566 159.354C755.882 244.851 658.716 294.744 559.906 342.584C395.666 412.791 226.736 461.564 51.7558 482.654L6.16 462.29Z" fill="url(#paint8_linear_1_43)"/>
<g filter="url(#filter11_f_1_43)">
<path d="M152.45 293.91C132.206 369.85 215.992 396.27 309.36 401.59C318.49 433.124 333.17 415.615 369.534 413.107C399.027 405.237 424.834 397.368 442.088 389.498L448.422 406.197C376.74 432.869 300.512 456.297 218.092 475.296C161.494 485.402 104.612 494.101 46.4921 496.602L13.0941 478.176L5.60831 459.75L28.0653 428.655C65.7223 382.654 104.22 336.893 152.445 293.915L152.45 293.91Z" fill="#023E8A"/>
<path d="M152.45 293.91C132.206 369.85 215.992 396.27 309.36 401.59C318.49 433.124 333.17 415.615 369.534 413.107C399.027 405.237 424.834 397.368 442.088 389.498L448.422 406.197C376.74 432.869 300.512 456.297 218.092 475.296C161.494 485.402 104.612 494.101 46.4921 496.602L13.0941 478.176L5.60831 459.75L28.0653 428.655C65.7223 382.654 104.22 336.893 152.445 293.915L152.45 293.91Z" stroke="black"/>
</g>
<g filter="url(#filter12_f_1_43)">
<path d="M29.06 471.39L6.85999 460.554L17.468 445.046L28.076 429.538L31.9566 434.072C37.4582 440.499 49.9306 446.323 62.3646 448.269C70.696 449.573 74.4496 449.577 85.3976 448.291C193.568 435.591 293.428 411.508 409.428 370.15C526.568 328.383 605.178 292.621 677.768 248.09C687.269 242.261 695.7 237.114 696.503 236.655C698.187 235.692 704.704 239.451 710.649 244.815L714.739 248.505L745.774 226.599C762.843 214.55 777.417 204.186 778.161 203.569C779.918 202.111 777.418 195.911 772.19 188.764L768.399 183.582L774.907 178.003C778.487 174.935 789.024 165.212 798.323 156.398L815.231 140.372L822.676 125.7C835.563 100.303 841.878 77.8773 841.878 57.5073C841.878 45.7543 841.425 44.4863 834.147 35.8823C827.621 28.1685 829.443 28.1133 837.821 35.7708C848.688 45.7029 849.193 47.4168 848.444 71.8258C847.56 100.633 843.503 117.941 831.056 146.011C824.978 159.719 817.674 169.069 796.729 189.958C750.066 236.496 692.879 274.727 595.999 324.158C557.814 343.641 521.562 359.111 464.509 380.267C346.579 423.997 217.129 457.428 88.9593 477.248C70.5193 480.1 54.4943 482.386 53.3473 482.33C52.2003 482.273 41.2723 477.35 29.0623 471.391L29.06 471.39Z" fill="#98C1D9"/>
</g>
<g filter="url(#filter13_f_1_43)">
<path d="M6.16 462.29L15.1178 478.577C28.0908 489.428 38.5748 494.059 48.5058 497.307C230.916 489.461 401.726 430.588 568.866 355.607C676.586 306.885 775.706 251.527 830.266 161.797L841.667 119.451L824.566 159.354C755.882 244.851 658.716 294.744 559.906 342.584C395.666 412.791 226.736 461.564 51.7558 482.654L6.16 462.29Z" fill="#023E8A"/>
</g>
<g filter="url(#filter14_f_1_43)">
<path d="M265.725 374.43C259.08 377.409 249.09 377.128 237.948 373.65C226.805 370.173 215.42 363.781 206.293 355.88C197.165 347.979 191.042 339.213 189.266 331.508C187.49 323.802 190.208 317.786 196.821 314.781C203.435 311.776 213.405 312.028 224.542 315.48C235.679 318.932 247.073 325.304 256.222 333.195C265.371 341.086 271.528 349.853 273.341 357.57C275.153 365.287 272.474 371.323 265.89 374.355" fill="#BA181B"/>
</g>
<defs>
<filter id="filter0_f_1_43" x="1.58701" y="0.241004" width="854.55" height="488.289" filterUnits="userSpaceOnUse" color-interpolation-filters="sRGB">
<feFlood flood-opacity="0" result="BackgroundImageFix"/>
<feBlend mode="normal" in="SourceGraphic" in2="BackgroundImageFix" result="shape"/>
<feGaussianBlur stdDeviation="2.3" result="effect1_foregroundBlur_1_43"/>
</filter>
<filter id="filter1_f_1_43" x="640.19" y="149.952" width="143.367" height="102.484" filterUnits="userSpaceOnUse" color-interpolation-filters="sRGB">
<feFlood flood-opacity="0" result="BackgroundImageFix"/>
<feBlend mode="normal" in="SourceGraphic" in2="BackgroundImageFix" result="shape"/>
<feGaussianBlur stdDeviation="2.3" result="effect1_foregroundBlur_1_43"/>
</filter>
<filter id="filter2_f_1_43" x="405.253" y="80.86" width="120.91" height="61.6006" filterUnits="userSpaceOnUse" color-interpolation-filters="sRGB">
<feFlood flood-opacity="0" result="BackgroundImageFix"/>
<feBlend mode="normal" in="SourceGraphic" in2="BackgroundImageFix" result="shape"/>
<feGaussianBlur stdDeviation="2.3" result="effect1_foregroundBlur_1_43"/>
</filter>
<filter id="filter3_f_1_43" x="245.372" y="78.05" width="357.436" height="229.672" filterUnits="userSpaceOnUse" color-interpolation-filters="sRGB">
<feFlood flood-opacity="0" result="BackgroundImageFix"/>
<feBlend mode="normal" in="SourceGraphic" in2="BackgroundImageFix" result="shape"/>
<feGaussianBlur stdDeviation="2.3" result="effect1_foregroundBlur_1_43"/>
</filter>
<filter id="filter4_f_1_43" x="259.166" y="102.74" width="342.714" height="213.038" filterUnits="userSpaceOnUse" color-interpolation-filters="sRGB">
<feFlood flood-opacity="0" result="BackgroundImageFix"/>
<feBlend mode="normal" in="SourceGraphic" in2="BackgroundImageFix" result="shape"/>
<feGaussianBlur stdDeviation="2.3" result="effect1_foregroundBlur_1_43"/>
</filter>
<filter id="filter5_f_1_43" x="592.4" y="77.84" width="140.7" height="65.415" filterUnits="userSpaceOnUse" color-interpolation-filters="sRGB">
<feFlood flood-opacity="0" result="BackgroundImageFix"/>
<feBlend mode="normal" in="SourceGraphic" in2="BackgroundImageFix" result="shape"/>
<feGaussianBlur stdDeviation="2.3" result="effect1_foregroundBlur_1_43"/>
</filter>
<filter id="filter6_f_1_43" x="592.1" y="102.88" width="122.78" height="57.6417" filterUnits="userSpaceOnUse" color-interpolation-filters="sRGB">
<feFlood flood-opacity="0" result="BackgroundImageFix"/>
<feBlend mode="normal" in="SourceGraphic" in2="BackgroundImageFix" result="shape"/>
<feGaussianBlur stdDeviation="2.3" result="effect1_foregroundBlur_1_43"/>
</filter>
<filter id="filter7_f_1_43" x="433.46" y="130.893" width="227.9" height="105.223" filterUnits="userSpaceOnUse" color-interpolation-filters="sRGB">
<feFlood flood-opacity="0" result="BackgroundImageFix"/>
<feBlend mode="normal" in="SourceGraphic" in2="BackgroundImageFix" result="shape"/>
<feGaussianBlur stdDeviation="2.3" result="effect1_foregroundBlur_1_43"/>
</filter>
<filter id="filter8_f_1_43" x="451.316" y="113.68" width="228.014" height="91.5433" filterUnits="userSpaceOnUse" color-interpolation-filters="sRGB">
<feFlood flood-opacity="0" result="BackgroundImageFix"/>
<feBlend mode="normal" in="SourceGraphic" in2="BackgroundImageFix" result="shape"/>
<feGaussianBlur stdDeviation="2.3" result="effect1_foregroundBlur_1_43"/>
</filter>
<filter id="filter9_f_1_43" x="395.47" y="147.66" width="230.87" height="102.464" filterUnits="userSpaceOnUse" color-interpolation-filters="sRGB">
<feFlood flood-opacity="0" result="BackgroundImageFix"/>
<feBlend mode="normal" in="SourceGraphic" in2="BackgroundImageFix" result="shape"/>
<feGaussianBlur stdDeviation="2.3" result="effect1_foregroundBlur_1_43"/>
</filter>
<filter id="filter10_f_1_43" x="637.968" y="11.016" width="187.842" height="120.357" filterUnits="userSpaceOnUse" color-interpolation-filters="sRGB">
<feFlood flood-opacity="0" result="BackgroundImageFix"/>
<feBlend mode="normal" in="SourceGraphic" in2="BackgroundImageFix" result="shape"/>
<feGaussianBlur stdDeviation="2.3" result="effect1_foregroundBlur_1_43"/>
</filter>
<filter id="filter11_f_1_43" x="0.440863" y="288.942" width="453.227" height="212.766" filterUnits="userSpaceOnUse" color-interpolation-filters="sRGB">
<feFlood flood-opacity="0" result="BackgroundImageFix"/>
<feBlend mode="normal" in="SourceGraphic" in2="BackgroundImageFix" result="shape"/>
<feGaussianBlur stdDeviation="2.3" result="effect1_foregroundBlur_1_43"/>
</filter>
<filter id="filter12_f_1_43" x="2.25999" y="25.4621" width="851.014" height="461.468" filterUnits="userSpaceOnUse" color-interpolation-filters="sRGB">
<feFlood flood-opacity="0" result="BackgroundImageFix"/>
<feBlend mode="normal" in="SourceGraphic" in2="BackgroundImageFix" result="shape"/>
<feGaussianBlur stdDeviation="2.3" result="effect1_foregroundBlur_1_43"/>
</filter>
<filter id="filter13_f_1_43" x="1.56" y="114.851" width="844.707" height="387.056" filterUnits="userSpaceOnUse" color-interpolation-filters="sRGB">
<feFlood flood-opacity="0" result="BackgroundImageFix"/>
<feBlend mode="normal" in="SourceGraphic" in2="BackgroundImageFix" result="shape"/>
<feGaussianBlur stdDeviation="2.3" result="effect1_foregroundBlur_1_43"/>
</filter>
<filter id="filter14_f_1_43" x="185.635" y="309.596" width="91.3592" height="69.9816" filterUnits="userSpaceOnUse" color-interpolation-filters="sRGB">
<feFlood flood-opacity="0" result="BackgroundImageFix"/>
<feBlend mode="normal" in="SourceGraphic" in2="BackgroundImageFix" result="shape"/>
<feGaussianBlur stdDeviation="1.55001" result="effect1_foregroundBlur_1_43"/>
</filter>
<linearGradient id="paint0_linear_1_43" x1="713.88" y1="60.7" x2="675.88" y2="158.59" gradientUnits="userSpaceOnUse">
<stop stop-color="white"/>
<stop offset="1" stop-color="white" stop-opacity="0"/>
</linearGradient>
<linearGradient id="paint1_linear_1_43" x1="448.43" y1="86.61" x2="482.98" y2="180.47" gradientUnits="userSpaceOnUse">
<stop stop-color="white"/>
<stop offset="1" stop-color="white" stop-opacity="0"/>
</linearGradient>
<linearGradient id="paint2_linear_1_43" x1="713.88" y1="60.7" x2="675.88" y2="158.59" gradientUnits="userSpaceOnUse">
<stop stop-color="white"/>
<stop offset="1" stop-color="white" stop-opacity="0"/>
</linearGradient>
<linearGradient id="paint3_linear_1_43" x1="442.09" y1="201.77" x2="433.46" y2="187.95" gradientUnits="userSpaceOnUse">
<stop/>
<stop offset="1" stop-color="#784421"/>
</linearGradient>
<linearGradient id="paint4_linear_1_43" x1="432.31" y1="228.26" x2="423.67" y2="213.87" gradientUnits="userSpaceOnUse">
<stop/>
<stop offset="1" stop-color="#784421"/>
</linearGradient>
<linearGradient id="paint5_linear_1_43" x1="657.74" y1="117.59" x2="659.98" y2="111.28" gradientUnits="userSpaceOnUse">
<stop/>
<stop offset="1" stop-color="#784421"/>
</linearGradient>
<linearGradient id="paint6_linear_1_43" x1="646.85" y1="140.48" x2="649.5" y2="132.95" gradientUnits="userSpaceOnUse">
<stop/>
<stop offset="1" stop-color="#784421"/>
</linearGradient>
<linearGradient id="paint7_linear_1_43" x1="31.53" y1="456.87" x2="257.83" y2="320.39" gradientUnits="userSpaceOnUse">
<stop stop-color="#E3E2DB"/>
<stop offset="1" stop-color="#E3E2DB" stop-opacity="0"/>
</linearGradient>
<linearGradient id="paint8_linear_1_43" x1="395.42" y1="470.43" x2="362.03" y2="412.61" gradientUnits="userSpaceOnUse">
<stop/>
<stop offset="1" stop-opacity="0"/>
</linearGradient>
</defs>
</svg>
