<svg width="1920" height="1273" viewBox="0 0 1920 1273" fill="none" xmlns="http://www.w3.org/2000/svg">
<path d="M420.93 819.38H100.83L207.44 697.88L100.83 576.37H400.3L420.93 819.38Z" fill="#98C1D9"/>
<path d="M423.77 821.98H95.07L203.97 697.87L95.07 573.76H402.69L423.77 821.98ZM106.58 816.768H418.09L397.897 578.978H106.577L210.907 697.878L106.577 816.778L106.58 816.768Z" fill="#231F20"/>
<path d="M420.94 821.98C420.182 821.98 419.43 821.651 418.915 821.016L376.796 769.137C375.889 768.02 376.059 766.378 377.177 765.471C378.295 764.565 379.935 764.735 380.843 765.852L422.962 817.731C423.869 818.848 423.699 820.49 422.581 821.397C422.098 821.789 421.517 821.98 420.94 821.98Z" fill="#231F20"/>
<path d="M1521.5 818.58H1841.6L1734.9 697.08L1841.6 575.58H1542.1L1521.5 818.58Z" fill="#98C1D9"/>
<path d="M1847.3 821.19H1518.6L1539.68 572.97H1847.3L1738.4 697.08L1847.3 821.19H1847.3ZM1524.28 815.978H1835.79L1731.46 697.078L1835.79 578.178H1544.47L1524.28 815.968L1524.28 815.978Z" fill="#231F20"/>
<path d="M1522.2 820.26C1521.6 820.26 1521 820.053 1520.5 819.63C1519.41 818.692 1519.29 817.047 1520.22 815.955L1563.94 765.061C1564.87 763.969 1566.52 763.843 1567.61 764.783C1568.7 765.721 1568.83 767.366 1567.89 768.458L1524.18 819.352C1523.66 819.951 1522.93 820.26 1522.2 820.26Z" fill="#231F20"/>
<path d="M1565.62 522.32H378.82V765.32H1565.62V522.32Z" fill="#98C1D9"/>
<path d="M1568.3 767.92H376.2V519.7H1568.3V767.92ZM381.5 762.707H1563.1V524.917H381.5V762.707Z" fill="#231F20"/>
</svg>
